<?xml version="1.0" encoding="UTF-8"?>
<svg xmlns="http://www.w3.org/2000/svg" xmlns:xlink="http://www.w3.org/1999/xlink" width="126px" height="35px" viewBox="0 0 126 35" version="1.1">
<defs>
<linearGradient id="linear0" gradientUnits="userSpaceOnUse" x1="63.76" y1="148.34" x2="135.91" y2="234.33" gradientTransform="matrix(0.181042,0,0,0.181094,0.110642,0)">
<stop offset="0" style="stop-color:rgb(40%,20.784314%,0%);stop-opacity:1;"/>
<stop offset="0.36" style="stop-color:rgb(69.803922%,54.117647%,29.803922%);stop-opacity:1;"/>
<stop offset="0.52" style="stop-color:rgb(81.568627%,67.843137%,41.568627%);stop-opacity:1;"/>
<stop offset="1" style="stop-color:rgb(99.215686%,92.941176%,78.823529%);stop-opacity:1;"/>
</linearGradient>
<linearGradient id="linear1" gradientUnits="userSpaceOnUse" x1="49.32" y1="93.62" x2="133.02" y2="86.29" gradientTransform="matrix(0.181042,0,0,0.181094,0.110642,0)">
<stop offset="0" style="stop-color:rgb(49.411765%,31.764706%,9.411765%);stop-opacity:1;"/>
<stop offset="0.31" style="stop-color:rgb(69.411765%,54.509804%,29.411765%);stop-opacity:1;"/>
<stop offset="0.52" style="stop-color:rgb(81.568627%,67.843137%,41.568627%);stop-opacity:1;"/>
<stop offset="1" style="stop-color:rgb(99.215686%,92.941176%,78.823529%);stop-opacity:1;"/>
</linearGradient>
<linearGradient id="linear2" gradientUnits="userSpaceOnUse" x1="686.38" y1="464.06" x2="686.38" y2="86.67" gradientTransform="matrix(0.181042,0,0,0.181094,-13.208596,-36.401666)">
<stop offset="0.17" style="stop-color:rgb(40%,20.784314%,0%);stop-opacity:1;"/>
<stop offset="0.43" style="stop-color:rgb(69.803922%,54.117647%,29.803922%);stop-opacity:1;"/>
<stop offset="0.55" style="stop-color:rgb(81.568627%,67.843137%,41.568627%);stop-opacity:1;"/>
<stop offset="0.93" style="stop-color:rgb(99.215686%,92.941176%,78.823529%);stop-opacity:1;"/>
</linearGradient>
<linearGradient id="linear3" gradientUnits="userSpaceOnUse" x1="596.54" y1="256.14" x2="1191.18" y2="472.58" gradientTransform="matrix(0.181042,0,0,0.181094,-13.208596,-36.401666)">
<stop offset="0.05" style="stop-color:rgb(40%,20.784314%,0%);stop-opacity:1;"/>
<stop offset="0.23" style="stop-color:rgb(69.803922%,54.117647%,29.803922%);stop-opacity:1;"/>
<stop offset="0.31" style="stop-color:rgb(81.568627%,67.843137%,41.568627%);stop-opacity:1;"/>
<stop offset="0.59" style="stop-color:rgb(99.215686%,92.941176%,78.823529%);stop-opacity:1;"/>
</linearGradient>
<linearGradient id="linear4" gradientUnits="userSpaceOnUse" x1="1138.57" y1="291.42" x2="1261.4" y2="78.68" gradientTransform="matrix(0.179746,0.0216305,-0.0216243,0.179797,-111.595704,-42.519015)">
<stop offset="0" style="stop-color:rgb(40%,20.784314%,0%);stop-opacity:1;"/>
<stop offset="0.36" style="stop-color:rgb(69.803922%,54.117647%,29.803922%);stop-opacity:1;"/>
<stop offset="0.52" style="stop-color:rgb(81.568627%,67.843137%,41.568627%);stop-opacity:1;"/>
<stop offset="1" style="stop-color:rgb(99.215686%,92.941176%,78.823529%);stop-opacity:1;"/>
</linearGradient>
<linearGradient id="linear5" gradientUnits="userSpaceOnUse" x1="1152.24" y1="172.44" x2="1208.93" y2="74.24" gradientTransform="matrix(0.179746,0.0216305,-0.0216243,0.179797,-111.595704,-42.519015)">
<stop offset="0" style="stop-color:rgb(40%,20.784314%,0%);stop-opacity:1;"/>
<stop offset="0.36" style="stop-color:rgb(69.803922%,54.117647%,29.803922%);stop-opacity:1;"/>
<stop offset="0.52" style="stop-color:rgb(81.568627%,67.843137%,41.568627%);stop-opacity:1;"/>
<stop offset="1" style="stop-color:rgb(99.215686%,92.941176%,78.823529%);stop-opacity:1;"/>
</linearGradient>
<linearGradient id="linear6" gradientUnits="userSpaceOnUse" x1="1126.81" y1="185.9" x2="1272.29" y2="185.9" gradientTransform="matrix(0.179746,0.0216305,-0.0216243,0.179797,-111.595704,-42.519015)">
<stop offset="0" style="stop-color:rgb(40%,20.784314%,0%);stop-opacity:1;"/>
<stop offset="0.36" style="stop-color:rgb(69.803922%,54.117647%,29.803922%);stop-opacity:1;"/>
<stop offset="0.52" style="stop-color:rgb(81.568627%,67.843137%,41.568627%);stop-opacity:1;"/>
<stop offset="1" style="stop-color:rgb(99.215686%,92.941176%,78.823529%);stop-opacity:1;"/>
</linearGradient>
<linearGradient id="linear7" gradientUnits="userSpaceOnUse" x1="1126.75" y1="126.43" x2="1234.96" y2="126.43" gradientTransform="matrix(0.179746,0.0216305,-0.0216243,0.179797,-111.595704,-42.519015)">
<stop offset="0" style="stop-color:rgb(40%,20.784314%,0%);stop-opacity:1;"/>
<stop offset="0.36" style="stop-color:rgb(69.803922%,54.117647%,29.803922%);stop-opacity:1;"/>
<stop offset="0.52" style="stop-color:rgb(81.568627%,67.843137%,41.568627%);stop-opacity:1;"/>
<stop offset="1" style="stop-color:rgb(99.215686%,92.941176%,78.823529%);stop-opacity:1;"/>
</linearGradient>
<linearGradient id="linear8" gradientUnits="userSpaceOnUse" x1="638.73" y1="337.1" x2="717.72" y2="291.49" gradientTransform="matrix(0.181042,0,0,0.181094,-13.208596,-36.401666)">
<stop offset="0" style="stop-color:rgb(45.490196%,27.058824%,5.490196%);stop-opacity:1;"/>
<stop offset="0.33" style="stop-color:rgb(69.411765%,54.509804%,29.411765%);stop-opacity:1;"/>
<stop offset="0.52" style="stop-color:rgb(81.568627%,67.843137%,41.568627%);stop-opacity:1;"/>
<stop offset="1" style="stop-color:rgb(99.215686%,92.941176%,78.823529%);stop-opacity:1;"/>
</linearGradient>
</defs>
<g id="surface1">
<path style=" stroke:none;fill-rule:evenodd;fill:url(#linear0);" d="M 0.304688 32.175781 L 19.898438 23 L 22.023438 24.597656 L 20.769531 29.285156 L 28.058594 29.285156 L 31.917969 32.175781 Z M 0.304688 32.175781 "/>
<path style=" stroke:none;fill-rule:evenodd;fill:url(#linear1);" d="M 19.753906 22.652344 L 0.109375 31.828125 L 25.691406 1.402344 Z M 19.753906 22.652344 "/>
<path style=" stroke:none;fill-rule:nonzero;fill:rgb(12.941176%,23.529412%,45.882353%);fill-opacity:1;" d="M 26.378906 12.398438 L 38.871094 12.398438 C 39.464844 12.382812 40.058594 12.457031 40.628906 12.617188 C 41.035156 12.75 41.40625 12.984375 41.703125 13.296875 C 41.960938 13.613281 42.144531 13.984375 42.234375 14.382812 C 42.320312 14.875 42.363281 15.375 42.359375 15.871094 C 42.375 16.738281 42.253906 17.601562 41.996094 18.429688 C 41.777344 19.082031 41.421875 19.6875 40.960938 20.199219 C 40.539062 20.667969 40.007812 21.027344 39.414062 21.246094 C 38.808594 21.484375 38.160156 21.605469 37.507812 21.597656 L 36.367188 21.597656 L 40.742188 28.011719 L 33.191406 28.011719 L 30.058594 22.585938 L 28.707031 28.011719 L 22.253906 28.011719 Z M 30.824219 20.003906 L 33.71875 20.003906 C 34.046875 20.015625 34.375 19.945312 34.671875 19.808594 C 34.925781 19.6875 35.148438 19.519531 35.332031 19.304688 C 35.5 19.101562 35.628906 18.863281 35.707031 18.605469 C 35.792969 18.367188 35.835938 18.117188 35.835938 17.859375 C 35.863281 17.542969 35.726562 17.230469 35.476562 17.035156 C 35.167969 16.839844 34.804688 16.75 34.441406 16.773438 L 31.628906 16.773438 Z M 30.824219 20.003906 "/>
<path style=" stroke:none;fill-rule:nonzero;fill:rgb(12.941176%,23.529412%,45.882353%);fill-opacity:1;" d="M 41.957031 21.988281 C 42.050781 21.398438 42.183594 20.8125 42.363281 20.242188 C 42.527344 19.65625 42.726562 19.085938 42.964844 18.527344 C 43.179688 18.011719 43.4375 17.515625 43.726562 17.039062 C 43.984375 16.605469 44.300781 16.210938 44.667969 15.863281 C 45.070312 15.507812 45.535156 15.230469 46.039062 15.046875 C 46.710938 14.789062 47.410156 14.613281 48.125 14.523438 C 49.140625 14.386719 50.164062 14.316406 51.191406 14.320312 C 51.640625 14.320312 52.148438 14.320312 52.714844 14.320312 C 53.277344 14.320312 53.832031 14.367188 54.410156 14.4375 C 54.976562 14.515625 55.53125 14.636719 56.082031 14.789062 C 56.597656 14.933594 57.085938 15.15625 57.53125 15.453125 C 57.953125 15.753906 58.308594 16.136719 58.574219 16.582031 C 58.847656 17.089844 58.984375 17.660156 58.972656 18.234375 C 58.984375 19.28125 58.875 20.324219 58.644531 21.34375 C 58.398438 22.359375 58.058594 23.351562 57.636719 24.304688 C 57.296875 25.089844 56.824219 25.804688 56.234375 26.417969 C 55.726562 26.949219 55.121094 27.378906 54.449219 27.6875 C 53.761719 28 53.03125 28.207031 52.277344 28.292969 C 51.445312 28.40625 50.605469 28.46875 49.765625 28.472656 C 49.1875 28.472656 48.59375 28.464844 47.988281 28.449219 C 47.382812 28.425781 46.78125 28.367188 46.1875 28.265625 C 45.617188 28.175781 45.054688 28.027344 44.511719 27.824219 C 44.007812 27.636719 43.542969 27.351562 43.148438 26.984375 C 42.738281 26.621094 42.414062 26.167969 42.207031 25.65625 C 41.945312 25.046875 41.816406 24.386719 41.828125 23.722656 C 41.824219 23.140625 41.867188 22.5625 41.957031 21.988281 Z M 49.65625 24.324219 C 50.144531 24.339844 50.625 24.195312 51.027344 23.914062 C 51.382812 23.65625 51.683594 23.328125 51.910156 22.945312 C 52.117188 22.558594 52.269531 22.144531 52.359375 21.714844 C 52.4375 21.332031 52.476562 20.945312 52.480469 20.554688 C 52.480469 19.992188 52.324219 19.597656 52.023438 19.378906 C 51.726562 19.164062 51.144531 19.085938 50.328125 19.09375 C 49.890625 19.082031 49.460938 19.207031 49.101562 19.453125 C 48.777344 19.710938 48.515625 20.03125 48.332031 20.402344 C 48.117188 20.796875 47.96875 21.226562 47.898438 21.667969 C 47.800781 22.148438 47.757812 22.632812 47.761719 23.117188 C 47.769531 23.933594 48.402344 24.335938 49.65625 24.324219 Z M 49.65625 24.324219 "/>
<path style=" stroke:none;fill-rule:nonzero;fill:rgb(12.941176%,23.529412%,45.882353%);fill-opacity:1;" d="M 61.054688 14.785156 L 67.191406 14.785156 L 66.386719 17.890625 L 66.425781 17.890625 C 67.074219 16.648438 67.84375 15.746094 68.734375 15.175781 C 69.625 14.605469 70.738281 14.324219 72.078125 14.324219 C 72.589844 14.324219 73.097656 14.375 73.601562 14.476562 C 74.050781 14.566406 74.480469 14.734375 74.867188 14.976562 C 75.234375 15.222656 75.539062 15.554688 75.753906 15.941406 C 75.980469 16.386719 76.09375 16.886719 76.074219 17.386719 C 76.074219 17.835938 76.03125 18.28125 75.945312 18.722656 C 75.851562 19.175781 75.738281 19.625 75.609375 20.097656 L 73.511719 28.011719 L 67.125 28.011719 L 68.210938 24.007812 C 68.265625 23.828125 68.332031 23.59375 68.398438 23.332031 C 68.46875 23.066406 68.511719 22.835938 68.566406 22.589844 C 68.625 22.339844 68.671875 22.109375 68.714844 21.890625 C 68.753906 21.722656 68.777344 21.554688 68.78125 21.386719 C 68.78125 20.964844 68.660156 20.671875 68.417969 20.511719 C 68.152344 20.351562 67.847656 20.273438 67.535156 20.28125 C 67.273438 20.277344 67.007812 20.304688 66.75 20.367188 C 66.523438 20.425781 66.320312 20.550781 66.160156 20.71875 C 65.957031 20.925781 65.792969 21.171875 65.675781 21.441406 C 65.511719 21.839844 65.375 22.25 65.273438 22.664062 L 63.914062 28.011719 L 57.652344 28.011719 Z M 61.054688 14.785156 "/>
<path style=" stroke:none;fill-rule:nonzero;fill:rgb(12.941176%,23.529412%,45.882353%);fill-opacity:1;" d="M 78.105469 14.585938 C 78.46875 14.644531 78.933594 14.6875 79.5 14.722656 C 80.0625 14.753906 80.648438 14.785156 81.253906 14.785156 L 81.296875 14.785156 C 81.972656 14.785156 82.550781 14.765625 83.03125 14.722656 C 83.507812 14.675781 83.910156 14.644531 84.277344 14.585938 L 80.808594 28.011719 L 74.632812 28.011719 Z M 84.089844 10.65625 C 84.835938 10.65625 85.210938 10.808594 85.210938 11.113281 C 85.203125 11.203125 85.191406 11.289062 85.167969 11.375 C 85.140625 11.519531 85.101562 11.679688 85.0625 11.855469 C 85.019531 12.03125 84.96875 12.234375 84.914062 12.425781 C 84.855469 12.617188 84.808594 12.8125 84.765625 12.96875 C 84.667969 13.289062 84.371094 13.480469 83.875 13.535156 C 83.171875 13.605469 82.46875 13.636719 81.761719 13.625 L 80.789062 13.625 C 80.21875 13.636719 79.644531 13.605469 79.074219 13.535156 C 78.679688 13.492188 78.480469 13.355469 78.480469 13.101562 C 78.488281 12.882812 78.519531 12.660156 78.570312 12.445312 C 78.609375 12.1875 78.664062 11.929688 78.734375 11.675781 C 78.792969 11.496094 78.871094 11.320312 78.96875 11.15625 C 79.050781 11.011719 79.179688 10.898438 79.328125 10.828125 C 79.550781 10.742188 79.789062 10.691406 80.027344 10.683594 C 80.339844 10.671875 80.761719 10.664062 81.296875 10.664062 Z M 84.089844 10.65625 "/>
<path style=" stroke:none;fill-rule:nonzero;fill:rgb(12.941176%,23.529412%,45.882353%);fill-opacity:1;" d="M 86.773438 11.679688 L 92.949219 11.679688 L 88.71875 28.011719 L 82.542969 28.011719 Z M 86.773438 11.679688 "/>
<path style=" stroke:none;fill-rule:nonzero;fill:url(#linear2);" d="M 125.808594 19.804688 L 125.652344 18.457031 L 125.5 19.804688 L 125.488281 19.902344 C 125.5 19.753906 125.507812 19.613281 125.515625 19.472656 C 125.515625 19.300781 125.527344 19.160156 125.515625 19.027344 C 125.496094 18.046875 125.167969 16.996094 124.519531 15.820312 C 124.378906 15.566406 124.21875 15.300781 124.050781 15.035156 L 123.257812 13.796875 L 123.773438 15.175781 C 123.914062 15.558594 124.03125 15.949219 124.121094 16.347656 C 123.738281 14.789062 122.882812 13.386719 121.671875 12.332031 C 121.285156 11.992188 120.871094 11.683594 120.433594 11.40625 L 119.738281 10.96875 L 120.222656 11.632812 L 120.28125 11.714844 L 120.3125 11.753906 C 122.0625 14.195312 122.886719 16.738281 122.765625 19.304688 C 122.648438 21.257812 122.023438 23.148438 120.953125 24.789062 C 120.894531 24.882812 120.832031 24.972656 120.773438 25.070312 C 121.027344 24.660156 121.265625 24.230469 121.496094 23.78125 C 122.175781 22.371094 122.550781 20.835938 122.601562 19.273438 C 122.617188 18.734375 122.59375 18.195312 122.53125 17.65625 C 122.234375 15.210938 120.921875 12.019531 118.136719 10.398438 C 117.542969 10.058594 116.90625 9.796875 116.242188 9.628906 C 115.402344 9.390625 114.542969 9.234375 113.671875 9.152344 L 114.675781 7.386719 L 123.566406 6.574219 L 125.054688 0 L 116.46875 0.820312 L 116.429688 0.859375 C 113.570312 3.597656 113.15625 4.03125 111.410156 5.847656 C 110.953125 6.328125 110.378906 6.921875 109.648438 7.679688 C 109.648438 7.679688 108.902344 8.53125 108.046875 9.527344 C 107.25 10.460938 106.1875 11.71875 105.65625 12.425781 L 105.429688 12.730469 L 105.804688 12.675781 C 105.84375 12.675781 109.816406 12.097656 112.011719 12.519531 L 112.027344 12.519531 L 112.078125 12.527344 L 112.09375 12.527344 C 114.894531 12.785156 117.183594 14.085938 118.371094 16.097656 C 119.429688 17.894531 119.519531 20.058594 118.613281 22.1875 L 118.59375 22.230469 L 118.5625 22.292969 L 118.410156 22.636719 C 117.910156 23.558594 117.296875 24.417969 116.585938 25.191406 C 115.660156 26.121094 114.589844 26.894531 113.414062 27.476562 C 110.5625 28.910156 107.382812 29.21875 104.683594 28.320312 C 102.75 27.679688 101.246094 26.433594 100.425781 24.820312 C 99.785156 23.511719 99.605469 22.023438 99.917969 20.601562 C 99.929688 20.539062 99.945312 20.476562 99.957031 20.421875 L 100.21875 19.316406 L 99.675781 20.3125 C 98.738281 22.007812 97.863281 23.789062 97.09375 25.597656 C 96.804688 26.269531 96.527344 26.949219 96.261719 27.628906 L 96.234375 27.699219 L 96.273438 27.765625 C 97.191406 29.273438 98.601562 30.453125 100.464844 31.269531 C 102.289062 32.070312 104.460938 32.488281 106.921875 32.511719 L 106.949219 32.511719 C 104.453125 32.671875 100.863281 32.34375 97.800781 29.902344 L 96.625 28.972656 L 97.566406 30.121094 C 98.855469 31.6875 100.191406 32.695312 101.769531 33.300781 C 103.121094 33.808594 104.679688 34.042969 106.820312 34.042969 C 105.917969 34.105469 104.761719 34.160156 104.191406 34.042969 L 103.550781 33.929688 C 103.550781 33.929688 103.644531 33.996094 103.753906 34.0625 C 103.890625 34.144531 104.035156 34.21875 104.183594 34.277344 C 105.855469 34.84375 109.863281 34.964844 109.867188 34.964844 C 110.140625 34.984375 110.410156 34.996094 110.691406 34.996094 C 112.644531 34.964844 114.566406 34.535156 116.347656 33.730469 C 117.273438 33.332031 118.164062 32.851562 119.003906 32.292969 C 120.84375 31.089844 123.339844 29.03125 124.78125 26.050781 C 125.714844 24.109375 126.070312 21.941406 125.808594 19.804688 Z M 124.296875 19.988281 C 124.296875 19.949219 124.308594 19.90625 124.3125 19.867188 C 124.296875 20 124.28125 20.132812 124.261719 20.265625 C 123.96875 22.316406 123.230469 24.28125 122.089844 26.015625 C 123.171875 24.265625 124.019531 22.132812 124.296875 19.988281 Z M 124.492188 25.921875 C 123.078125 28.835938 120.628906 30.855469 118.820312 32.039062 C 117.996094 32.585938 117.121094 33.058594 116.210938 33.449219 C 114.605469 34.171875 112.878906 34.585938 111.121094 34.675781 C 111.363281 34.609375 111.609375 34.535156 111.863281 34.453125 C 112.988281 34.113281 114.070312 33.644531 115.085938 33.058594 L 114.9375 32.785156 C 113.785156 33.378906 112.570312 33.839844 111.316406 34.164062 C 109.523438 34.632812 107.648438 34.710938 105.820312 34.390625 C 106.816406 34.382812 107.808594 34.289062 108.789062 34.113281 C 110.832031 33.75 112.886719 33.027344 114.421875 32.144531 L 114.28125 31.871094 C 112.386719 32.800781 110.339844 33.398438 108.242188 33.628906 C 107.878906 33.660156 107.433594 33.703125 106.988281 33.730469 C 104.804688 33.738281 103.230469 33.515625 101.882812 33.003906 C 100.710938 32.550781 99.644531 31.855469 98.761719 30.964844 C 101.640625 32.738281 104.78125 32.96875 107.027344 32.816406 C 109.652344 32.636719 112.4375 31.824219 114.472656 30.660156 L 114.324219 30.382812 C 112.027344 31.5 109.515625 32.117188 106.964844 32.195312 C 106.9375 32.191406 106.910156 32.191406 106.882812 32.195312 C 104.476562 32.167969 102.355469 31.761719 100.578125 30.980469 C 98.800781 30.199219 97.453125 29.085938 96.570312 27.664062 C 96.824219 27.015625 97.089844 26.359375 97.367188 25.71875 C 98.015625 24.207031 98.726562 22.722656 99.488281 21.285156 C 99.347656 22.546875 99.574219 23.824219 100.140625 24.960938 C 100.984375 26.652344 102.5625 27.953125 104.578125 28.621094 C 105.644531 28.972656 106.761719 29.148438 107.886719 29.140625 C 109.855469 29.125 111.792969 28.652344 113.546875 27.761719 C 114.753906 27.160156 115.855469 26.363281 116.804688 25.40625 C 117.535156 24.613281 118.164062 23.730469 118.675781 22.777344 L 118.835938 22.449219 L 118.871094 22.378906 L 118.894531 22.328125 C 119.839844 20.105469 119.746094 17.839844 118.632812 15.953125 C 117.394531 13.855469 115.023438 12.5 112.125 12.234375 L 112.078125 12.226562 L 112.070312 12.226562 C 110.203125 11.863281 107.195312 12.191406 106.136719 12.328125 C 106.59375 11.746094 107.328125 10.863281 108.285156 9.746094 C 109.113281 8.78125 109.832031 7.957031 109.878906 7.90625 C 110.605469 7.148438 111.179688 6.550781 111.640625 6.074219 C 113.375 4.261719 113.792969 3.832031 116.609375 1.132812 L 124.65625 0.359375 L 123.320312 6.292969 L 114.5 7.097656 L 113.164062 9.453125 L 113.414062 9.464844 C 114.347656 9.53125 115.269531 9.691406 116.167969 9.945312 L 116.191406 9.945312 C 116.820312 10.109375 117.425781 10.355469 117.988281 10.683594 C 120.675781 12.242188 121.941406 15.335938 122.230469 17.703125 C 122.289062 18.226562 122.3125 18.75 122.300781 19.277344 C 122.25 20.792969 121.886719 22.285156 121.226562 23.652344 C 120.121094 25.8125 118.757812 27.457031 117.0625 28.691406 L 117.242188 28.953125 C 118.847656 27.933594 120.207031 26.570312 121.226562 24.96875 C 122.324219 23.28125 122.964844 21.335938 123.082031 19.328125 C 123.199219 16.890625 122.488281 14.488281 120.972656 12.167969 C 121.152344 12.300781 121.3125 12.4375 121.46875 12.578125 C 124.042969 14.855469 124.257812 17.847656 123.984375 19.957031 C 123.691406 21.957031 123.003906 23.878906 121.96875 25.617188 C 120.988281 27.289062 119.777344 28.679688 118.644531 29.441406 L 118.8125 29.707031 C 121.722656 27.992188 124.035156 24.21875 124.570312 20.316406 C 124.761719 18.996094 124.71875 17.652344 124.441406 16.34375 C 124.941406 17.328125 125.191406 18.214844 125.207031 19.039062 C 125.207031 19.164062 125.207031 19.300781 125.199219 19.46875 C 125.164062 20.207031 125.0625 20.941406 124.894531 21.664062 C 124.308594 24.226562 122.996094 26.925781 121.621094 28.375 L 121.847656 28.589844 C 123.488281 26.933594 124.671875 24.871094 125.273438 22.613281 C 125.273438 22.59375 125.28125 22.570312 125.289062 22.550781 L 125.320312 22.445312 C 125.414062 22.097656 125.5 21.738281 125.570312 21.359375 C 125.546875 22.9375 125.179688 24.496094 124.492188 25.921875 Z M 106.960938 32.5 L 107.140625 32.488281 L 106.988281 32.503906 Z M 106.960938 32.5 "/>
<path style=" stroke:none;fill-rule:nonzero;fill:url(#linear3);" d="M 125.648438 19.824219 C 125.554688 20.691406 125.394531 21.550781 125.167969 22.394531 L 125.121094 22.5625 C 124.523438 24.792969 123.359375 26.828125 121.734375 28.472656 C 123.113281 27.023438 124.453125 24.285156 125.046875 21.6875 C 125.214844 20.957031 125.320312 20.214844 125.355469 19.464844 C 125.355469 19.320312 125.367188 19.171875 125.363281 19.03125 C 125.34375 18.078125 125.03125 17.0625 124.386719 15.898438 C 124.25 15.648438 124.09375 15.386719 123.925781 15.121094 C 124.511719 16.777344 124.679688 18.550781 124.414062 20.285156 C 123.894531 24.089844 121.652344 27.84375 118.730469 29.5625 C 121.019531 28.023438 123.628906 23.960938 124.140625 19.964844 C 124.484375 17.292969 123.914062 14.519531 121.574219 12.449219 C 121.191406 12.113281 120.785156 11.8125 120.355469 11.542969 L 120.445312 11.667969 C 122.371094 14.351562 123.039062 16.96875 122.925781 19.316406 C 122.730469 23.351562 120.160156 26.945312 117.152344 28.8125 C 118.863281 27.570312 120.253906 25.886719 121.363281 23.714844 C 122.03125 22.328125 122.402344 20.8125 122.453125 19.273438 C 122.464844 18.742188 122.441406 18.210938 122.378906 17.679688 C 122.058594 15.050781 120.671875 12.066406 118.058594 10.539062 C 117.484375 10.203125 116.863281 9.945312 116.214844 9.777344 C 115.304688 9.523438 114.367188 9.359375 113.425781 9.292969 L 114.597656 7.242188 L 123.449219 6.433594 L 124.855469 0.179688 L 116.535156 0.976562 C 112.914062 4.441406 113.25 4.179688 109.761719 7.792969 C 109.761719 7.792969 109.023438 8.632812 108.160156 9.640625 C 107.292969 10.648438 106.289062 11.847656 105.777344 12.539062 C 105.777344 12.539062 109.789062 11.953125 112.039062 12.382812 L 112.101562 12.398438 C 114.84375 12.648438 117.242188 13.910156 118.5 16.042969 C 119.617188 17.9375 119.640625 20.183594 118.753906 22.273438 L 118.699219 22.386719 C 118.644531 22.496094 118.589844 22.609375 118.539062 22.714844 C 118.03125 23.652344 117.410156 24.523438 116.691406 25.308594 C 115.753906 26.25 114.667969 27.035156 113.476562 27.625 C 108.292969 30.226562 102.320312 28.976562 100.277344 24.898438 C 99.617188 23.554688 99.433594 22.027344 99.761719 20.566406 C 99.773438 20.503906 99.789062 20.441406 99.804688 20.375 C 98.898438 22.015625 98.035156 23.773438 97.230469 25.648438 C 96.945312 26.308594 96.667969 26.984375 96.402344 27.675781 C 98.222656 30.671875 102.058594 32.300781 106.917969 32.34375 C 106.929688 32.335938 106.949219 32.332031 106.964844 32.335938 C 109.542969 32.261719 112.074219 31.644531 114.398438 30.523438 C 112.617188 31.542969 109.90625 32.457031 107.019531 32.660156 C 103.941406 32.871094 100.527344 32.277344 97.695312 30.023438 C 100.304688 33.183594 103.019531 33.90625 107.003906 33.886719 C 107.433594 33.859375 107.859375 33.820312 108.269531 33.78125 C 110.390625 33.550781 112.453125 32.953125 114.363281 32.011719 C 112.625 32.96875 110.738281 33.625 108.78125 33.957031 C 107.265625 34.238281 105.714844 34.304688 104.179688 34.152344 C 106.515625 34.875 109.007812 34.933594 111.378906 34.316406 C 112.640625 33.988281 113.859375 33.519531 115.019531 32.925781 C 114.011719 33.503906 112.941406 33.96875 111.828125 34.304688 C 111.273438 34.488281 110.707031 34.636719 110.132812 34.757812 L 109.875 34.8125 C 112.046875 34.976562 114.292969 34.464844 116.289062 33.589844 C 117.207031 33.195312 118.089844 32.71875 118.921875 32.164062 C 121.273438 30.632812 123.417969 28.523438 124.644531 25.988281 C 125.566406 24.074219 125.914062 21.933594 125.648438 19.824219 Z M 125.648438 19.824219 "/>
<path style=" stroke:none;fill-rule:nonzero;fill:url(#linear4);" d="M 97.105469 24.082031 C 98.585938 20.800781 100.648438 17.421875 103.230469 14.03125 C 106.464844 9.789062 110.535156 5.519531 115.320312 1.351562 L 115.941406 0.808594 L 110.5625 1.363281 L 110.515625 1.390625 C 110.46875 1.417969 105.542969 4.191406 99.925781 9.382812 C 96.722656 12.324219 93.835938 15.585938 91.3125 19.128906 C 88.296875 23.402344 86.03125 27.902344 84.589844 32.503906 L 84.492188 32.824219 L 94.351562 33.335938 L 94.628906 33.351562 L 94.628906 33.070312 C 94.652344 32.273438 94.746094 31.480469 94.914062 30.699219 C 95.183594 29.289062 95.789062 26.996094 97.105469 24.082031 Z M 94.109375 32.804688 L 85.1875 32.339844 C 86.707031 27.734375 88.914062 23.382812 91.734375 19.4375 C 94.234375 15.925781 97.097656 12.691406 100.273438 9.777344 C 105.539062 4.910156 110.128906 2.21875 110.726562 1.878906 L 114.363281 1.5 C 109.808594 5.527344 105.921875 9.652344 102.804688 13.734375 C 100.195312 17.160156 98.113281 20.578125 96.617188 23.898438 C 94.457031 28.683594 94.148438 31.8125 94.109375 32.804688 Z M 94.109375 32.804688 "/>
<path style=" stroke:none;fill-rule:nonzero;fill:url(#linear5);" d="M 96.8125 9.089844 L 96.875 9.035156 C 97.082031 8.855469 101.984375 4.746094 108.355469 2.113281 L 110.011719 1.433594 L 89.984375 3.5 L 87.171875 9.96875 L 96.734375 9.097656 Z M 87.992188 9.371094 L 90.347656 3.980469 L 106.640625 2.304688 C 103.0625 3.988281 99.695312 6.097656 96.617188 8.582031 Z M 87.992188 9.371094 "/>
<path style=" stroke:none;fill-rule:nonzero;fill:url(#linear6);" d="M 110.644531 1.628906 C 110.644531 1.628906 91.132812 12.527344 84.839844 32.59375 L 94.363281 33.089844 C 94.363281 33.089844 94.074219 19.511719 115.148438 1.15625 Z M 110.644531 1.628906 "/>
<path style=" stroke:none;fill-rule:nonzero;fill:url(#linear7);" d="M 108.253906 1.875 L 90.167969 3.742188 L 87.585938 9.667969 L 96.707031 8.839844 C 96.707031 8.839844 101.753906 4.554688 108.253906 1.875 Z M 108.253906 1.875 "/>
<path style=" stroke:none;fill-rule:nonzero;fill:url(#linear8);" d="M 102.941406 18.660156 L 105.359375 18.660156 L 105.339844 22.042969 L 103.9375 22.042969 L 103.9375 21.550781 L 102.804688 21.550781 L 102.515625 22.042969 L 100.921875 22.042969 Z M 103.976562 20.714844 L 103.992188 19.457031 L 103.230469 20.714844 Z M 106.289062 18.660156 L 107.894531 18.660156 L 108.132812 20.121094 C 108.132812 20.179688 108.171875 20.375 108.214844 20.695312 C 108.261719 20.449219 108.316406 20.253906 108.355469 20.09375 L 108.746094 18.660156 L 110.148438 18.660156 L 109.246094 22.042969 L 107.652344 22.042969 L 107.363281 20.746094 C 107.351562 20.6875 107.3125 20.503906 107.25 20.203125 C 107.21875 20.394531 107.175781 20.585938 107.125 20.769531 L 106.773438 22.050781 L 105.386719 22.050781 Z M 109.910156 20.527344 C 109.976562 20.105469 110.121094 19.699219 110.339844 19.328125 C 110.535156 19.011719 110.835938 18.777344 111.191406 18.671875 C 111.546875 18.582031 111.914062 18.542969 112.277344 18.554688 C 112.867188 18.554688 113.320312 18.617188 113.671875 18.820312 C 113.933594 18.976562 114.054688 19.261719 114.054688 19.710938 C 114.050781 19.992188 114.007812 20.273438 113.929688 20.542969 C 113.832031 20.949219 113.640625 21.328125 113.371094 21.652344 C 113.027344 22.035156 112.464844 22.148438 111.625 22.148438 C 110.378906 22.148438 109.859375 21.867188 109.859375 21.035156 C 109.855469 20.867188 109.871094 20.695312 109.898438 20.527344 Z M 111.574219 19.984375 C 111.414062 20.257812 111.324219 20.566406 111.308594 20.878906 C 111.308594 21.070312 111.46875 21.179688 111.78125 21.179688 C 111.949219 21.191406 112.109375 21.125 112.222656 21 C 112.3125 20.878906 112.382812 20.738281 112.417969 20.589844 C 112.480469 20.425781 112.515625 20.253906 112.523438 20.078125 C 112.523438 19.847656 112.371094 19.734375 112.054688 19.734375 C 111.859375 19.722656 111.675781 19.820312 111.570312 19.984375 Z M 115.257812 21.21875 C 115.738281 21.21875 115.953125 21.179688 115.953125 21.003906 C 115.953125 20.890625 115.890625 20.847656 115.746094 20.847656 C 115.515625 20.847656 115.371094 20.847656 115.332031 20.847656 C 114.535156 20.847656 114.179688 20.679688 114.179688 20.082031 C 114.179688 19.65625 114.34375 19.242188 114.636719 18.929688 C 114.929688 18.640625 115.445312 18.570312 116.234375 18.570312 C 116.851562 18.574219 117.46875 18.621094 118.078125 18.714844 L 117.796875 19.789062 C 117.433594 19.710938 117.066406 19.667969 116.695312 19.660156 C 116.074219 19.660156 115.765625 19.703125 115.765625 19.898438 C 115.765625 20.039062 115.878906 20.039062 116.128906 20.039062 L 116.671875 20.039062 C 117.300781 20.039062 117.589844 20.234375 117.589844 20.71875 C 117.609375 21.109375 117.464844 21.492188 117.195312 21.777344 C 116.898438 22.054688 116.425781 22.148438 115.734375 22.148438 C 115.050781 22.144531 114.371094 22.085938 113.699219 21.96875 L 113.925781 21.09375 C 114.363281 21.167969 114.808594 21.207031 115.253906 21.21875 Z M 115.257812 21.21875 "/>
</g>
</svg>
