<?xml version="1.0" encoding="utf-8"?>
<!-- Generator: Adobe Illustrator 25.0.0, SVG Export Plug-In . SVG Version: 6.00 Build 0)  -->
<svg version="1.1" id="Layer_1" xmlns="http://www.w3.org/2000/svg" xmlns:xlink="http://www.w3.org/1999/xlink" x="0px" y="0px"
	 viewBox="0 0 126 35" style="enable-background:new 0 0 126 35;" xml:space="preserve">
<style type="text/css">
	.st0{fill-rule:evenodd;clip-rule:evenodd;}
</style>
<g>
	<g>
		<polygon class="st0" points="0.6,32.14 20.1,23.03 22.21,24.61 20.97,29.27 28.22,29.27 32.06,32.14 		"/>
		<polygon class="st0" points="19.96,22.68 0.4,31.79 25.87,1.6 		"/>
		<g>
			<path d="M26.55,12.51h12.42c0.72,0,1.3,0.07,1.75,0.22c0.45,0.16,0.81,0.38,1.07,0.67c0.25,0.3,0.43,0.67,0.53,1.09
				c0.08,0.43,0.12,0.93,0.12,1.48c0,0.98-0.12,1.83-0.35,2.54c-0.25,0.71-0.6,1.3-1.03,1.76c-0.44,0.48-0.95,0.82-1.54,1.04
				c-0.59,0.23-1.22,0.35-1.9,0.35h-1.14L40.85,28h-7.52l-3.12-5.38L28.87,28h-6.43L26.55,12.51z M30.97,20.06h2.88
				c0.37,0,0.68-0.07,0.95-0.2c0.27-0.13,0.48-0.3,0.66-0.5c0.17-0.2,0.29-0.44,0.38-0.69c0.09-0.25,0.13-0.49,0.13-0.74
				c0-0.37-0.12-0.65-0.36-0.82c-0.24-0.17-0.58-0.26-1.03-0.26h-2.8L30.97,20.06z"/>
			<path d="M42.05,22.03c0.09-0.58,0.23-1.16,0.41-1.74c0.16-0.58,0.36-1.15,0.6-1.7c0.23-0.54,0.49-1.03,0.76-1.48
				c0.26-0.44,0.57-0.82,0.93-1.16c0.35-0.32,0.8-0.59,1.36-0.81c0.56-0.22,1.25-0.4,2.08-0.52c0.83-0.12,1.85-0.19,3.05-0.2
				c0.45,0,0.95,0,1.52,0.01c0.55,0.01,1.11,0.05,1.69,0.12c0.56,0.08,1.11,0.2,1.66,0.35c0.54,0.15,1.02,0.37,1.44,0.66
				c0.42,0.3,0.77,0.67,1.04,1.12c0.26,0.45,0.39,0.99,0.4,1.64c0.01,1.07-0.1,2.1-0.33,3.09c-0.24,1-0.58,1.98-1.01,2.94
				c-0.4,0.87-0.86,1.57-1.39,2.09c-0.53,0.54-1.12,0.96-1.78,1.26c-0.67,0.31-1.39,0.51-2.16,0.6c-0.78,0.11-1.62,0.17-2.5,0.18
				c-0.58,0.01-1.17,0-1.77-0.03c-0.62-0.02-1.21-0.08-1.79-0.18c-0.59-0.1-1.15-0.24-1.67-0.44c-0.52-0.2-0.97-0.47-1.35-0.83
				c-0.4-0.34-0.71-0.78-0.94-1.32c-0.24-0.53-0.37-1.17-0.38-1.92C41.92,23.2,41.96,22.62,42.05,22.03z M49.72,24.34
				c0.54-0.01,1-0.14,1.36-0.4c0.36-0.26,0.66-0.59,0.88-0.96c0.21-0.38,0.36-0.79,0.45-1.22c0.08-0.43,0.12-0.81,0.12-1.15
				c-0.01-0.56-0.16-0.95-0.45-1.17c-0.31-0.2-0.87-0.29-1.69-0.29c-0.49,0-0.9,0.12-1.22,0.36c-0.32,0.25-0.58,0.56-0.77,0.94
				c-0.21,0.38-0.35,0.8-0.43,1.26c-0.1,0.48-0.14,0.95-0.14,1.43C47.84,23.96,48.47,24.36,49.72,24.34z"/>
			<path d="M61.06,14.88h6.11l-0.8,3.08h0.04c0.64-1.23,1.41-2.13,2.3-2.69c0.88-0.56,1.99-0.85,3.33-0.85
				c0.52,0,1.02,0.05,1.52,0.15c0.48,0.1,0.9,0.26,1.26,0.5c0.37,0.24,0.66,0.56,0.88,0.95c0.21,0.39,0.32,0.87,0.32,1.43
				c0,0.43-0.04,0.88-0.13,1.32c-0.1,0.45-0.21,0.9-0.33,1.37L73.46,28H67.1l1.07-3.97c0.06-0.19,0.12-0.41,0.19-0.67
				c0.05-0.24,0.11-0.49,0.17-0.73c0.06-0.25,0.11-0.48,0.15-0.7c0.04-0.2,0.07-0.37,0.07-0.5c0-0.42-0.12-0.71-0.36-0.87
				c-0.25-0.16-0.55-0.24-0.88-0.24c-0.3,0-0.56,0.03-0.78,0.08c-0.22,0.06-0.42,0.18-0.59,0.35c-0.18,0.17-0.34,0.41-0.48,0.71
				c-0.14,0.32-0.27,0.72-0.4,1.21L63.91,28h-6.24L61.06,14.88z"/>
			<path d="M78.03,14.68c0.36,0.06,0.83,0.1,1.39,0.13c0.56,0.04,1.14,0.06,1.75,0.06h0.04c0.67,0,1.25-0.02,1.73-0.06
				c0.46-0.03,0.88-0.08,1.24-0.13L80.73,28h-6.15L78.03,14.68z M83.99,10.78c0.74,0,1.12,0.15,1.12,0.46
				c0,0.04-0.01,0.13-0.04,0.26c-0.03,0.14-0.07,0.3-0.11,0.48c-0.04,0.19-0.09,0.38-0.15,0.57c-0.06,0.2-0.1,0.38-0.14,0.54
				c-0.1,0.32-0.39,0.51-0.89,0.56c-0.49,0.06-1.19,0.09-2.11,0.09h-0.97c-0.76,0-1.33-0.03-1.71-0.09
				c-0.39-0.04-0.59-0.19-0.59-0.43c0-0.16,0.03-0.38,0.09-0.65c0.04-0.26,0.1-0.52,0.16-0.76c0.07-0.22,0.15-0.39,0.23-0.52
				c0.07-0.13,0.19-0.24,0.36-0.32c0.15-0.07,0.39-0.13,0.69-0.15c0.31-0.01,0.73-0.02,1.26-0.02H83.99z"/>
			<path d="M86.66,11.8h6.15L88.6,28h-6.15L86.66,11.8z"/>
		</g>
	</g>
	<g>
		<g>
			<path d="M125.52,19.86l-0.15-1.34l-0.15,1.34c0,0.03-0.01,0.06-0.01,0.09c0.01-0.14,0.02-0.29,0.03-0.42
				c0.01-0.17,0.01-0.31,0.01-0.44c-0.02-0.97-0.34-2.01-0.99-3.18c-0.14-0.25-0.3-0.52-0.47-0.78l-0.79-1.23l0.51,1.37
				c0.14,0.37,0.26,0.76,0.35,1.16c-0.34-1.37-1.07-2.77-2.44-3.99c-0.37-0.33-0.79-0.64-1.23-0.92l-0.69-0.43l0.48,0.66
				c0.02,0.03,0.04,0.05,0.06,0.08l0.03,0.04c1.74,2.42,2.56,4.94,2.44,7.49c-0.09,1.86-0.71,3.74-1.8,5.44
				c-0.06,0.09-0.12,0.18-0.18,0.28c0.25-0.41,0.49-0.83,0.72-1.28c0.69-1.47,1.06-2.97,1.1-4.47c0.01-0.56-0.01-1.09-0.07-1.6
				c-0.3-2.43-1.6-5.59-4.38-7.2c-0.59-0.34-1.22-0.6-1.88-0.77c-0.08-0.02-1.25-0.36-2.56-0.47l1-1.76l8.85-0.8l1.47-6.53
				l-8.55,0.82l-0.04,0.04c-2.84,2.72-3.26,3.15-4.99,4.95c-0.46,0.48-1.03,1.07-1.75,1.82l0,0.01c-0.01,0.01-0.74,0.84-1.59,1.83
				c-0.79,0.92-1.85,2.17-2.38,2.87l-0.23,0.3l0.37-0.05c0.04-0.01,3.99-0.57,6.18-0.15l0.02,0c0.02,0,0.03,0.01,0.05,0.01l0.02,0
				c2.79,0.25,5.06,1.54,6.25,3.54c1.06,1.78,1.14,3.93,0.24,6.04l-0.02,0.04c-0.01,0.02-0.02,0.04-0.03,0.07l-0.16,0.32
				c-0.47,0.88-1.08,1.73-1.81,2.54c-0.89,0.9-1.95,1.67-3.16,2.27c-2.84,1.42-6.01,1.73-8.69,0.84c-1.93-0.64-3.43-1.87-4.24-3.48
				c-0.64-1.27-0.81-2.72-0.51-4.18c0.01-0.06,0.03-0.12,0.04-0.19l0.26-1.1l-0.55,0.99c-0.93,1.68-1.8,3.45-2.57,5.25
				c-0.29,0.66-0.56,1.34-0.83,2.01l-0.03,0.07l0.04,0.07c0.91,1.5,2.32,2.67,4.17,3.48c1.82,0.79,3.98,1.21,6.43,1.23l0.03,0
				c-2.49,0.16-6.06-0.17-9.11-2.59l-1.16-0.92l0.94,1.14c1.28,1.55,2.61,2.55,4.18,3.15c1.34,0.51,2.9,0.74,5.02,0.74
				c-0.9,0.06-2.05,0.12-2.62,0l-0.63-0.12c0,0,0.09,0.07,0.2,0.13c0.25,0.15,0.43,0.21,0.43,0.21c1.66,0.56,5.65,0.68,5.66,0.68
				c0.27,0.02,0.54,0.03,0.82,0.03c1.8,0,3.73-0.43,5.63-1.25c0.93-0.4,1.82-0.88,2.64-1.43c1.83-1.19,4.32-3.23,5.75-6.19
				C125.42,24.12,125.77,22.04,125.52,19.86z M124.01,20.04c0.01-0.04,0.01-0.08,0.01-0.12c-0.01,0.13-0.03,0.26-0.05,0.39
				c-0.28,2.04-1.06,4.04-2.16,5.71C122.89,24.28,123.74,22.17,124.01,20.04z M124.21,25.93c-1.4,2.9-3.84,4.9-5.64,6.07
				c-0.81,0.54-1.68,1.01-2.6,1.4c-1.7,0.74-3.43,1.16-5.07,1.22c0.24-0.07,0.49-0.14,0.74-0.22c1.19-0.37,2.3-0.85,3.21-1.39
				l-0.15-0.27c-1.25,0.63-2.42,1.07-3.59,1.37c-1.85,0.47-3.66,0.54-5.47,0.22c0.96-0.01,1.95-0.1,2.95-0.28
				c2.03-0.36,4.08-1.07,5.61-1.95l-0.15-0.27c-1.88,0.92-3.91,1.51-6.01,1.74c-0.37,0.03-0.8,0.07-1.25,0.1
				c-2.17,0.01-3.74-0.21-5.08-0.72c-1.14-0.43-2.15-1.09-3.11-2.03c2.87,1.76,5.99,1.99,8.23,1.84c2.61-0.18,5.38-0.98,7.41-2.14
				l-0.14-0.27c-2.3,1.11-4.69,1.69-7.33,1.79c-0.02,0-0.05,0-0.08,0.01c-2.39-0.02-4.5-0.43-6.27-1.2
				c-1.77-0.77-3.11-1.88-3.99-3.29c0.25-0.65,0.52-1.3,0.79-1.93c0.64-1.5,1.35-2.97,2.11-4.4c-0.13,1.28,0.09,2.53,0.65,3.65
				c0.84,1.68,2.41,2.97,4.42,3.63c1.04,0.35,2.16,0.52,3.29,0.52c1.88,0,3.82-0.46,5.63-1.37c1.23-0.62,2.33-1.4,3.24-2.33l0,0
				c0.75-0.83,1.38-1.7,1.86-2.61l0.16-0.33c0.01-0.02,0.02-0.05,0.03-0.07l0.02-0.05c0.94-2.21,0.85-4.45-0.26-6.32
				c-1.23-2.08-3.59-3.43-6.48-3.69c-0.01,0-0.03-0.01-0.04-0.01l-0.02,0c-1.86-0.36-4.85-0.03-5.91,0.1
				c0.45-0.58,1.18-1.45,2.14-2.56c0.83-0.96,1.54-1.77,1.59-1.83c0.73-0.75,1.3-1.34,1.75-1.82c1.73-1.79,2.14-2.22,4.95-4.9
				l8.01-0.77l-1.33,5.89l-8.78,0.8l-1.33,2.33l0.25,0.01c1.38,0.08,2.69,0.46,2.74,0.48l0.02,0.01h0c0.63,0.16,1.23,0.41,1.79,0.73
				c2.68,1.55,3.94,4.62,4.23,6.97c0.06,0.5,0.08,1.02,0.07,1.56c-0.04,1.46-0.4,2.92-1.07,4.34c-1.1,2.14-2.46,3.78-4.14,5
				l0.17,0.26c1.54-0.95,2.95-2.36,3.97-3.95c1.12-1.75,1.75-3.68,1.85-5.6c0.12-2.42-0.59-4.8-2.1-7.11
				c0.17,0.13,0.34,0.27,0.5,0.41c2.56,2.26,2.77,5.23,2.5,7.32c-0.23,1.82-0.95,3.81-2.01,5.62c-0.98,1.66-2.18,3.04-3.31,3.8
				l0.17,0.26c2.9-1.7,5.2-5.45,5.73-9.32c0.19-1.37,0.15-2.71-0.13-3.94c0.49,0.98,0.74,1.85,0.76,2.67c0,0.12,0,0.26-0.01,0.42
				c-0.03,0.68-0.13,1.42-0.3,2.18c-0.58,2.55-1.89,5.22-3.26,6.66l0.22,0.22c1.64-1.66,2.76-3.6,3.41-5.93
				c0.01-0.02,0.01-0.04,0.02-0.06c0.01-0.03,0.02-0.07,0.03-0.1c0.09-0.35,0.18-0.7,0.25-1.07
				C125.26,22.97,124.9,24.49,124.21,25.93z M106.75,32.46l0.01-0.01c0.06,0,0.12,0,0.19-0.01c-0.05,0-0.1,0.01-0.15,0.01
				C106.78,32.46,106.77,32.46,106.75,32.46z"/>
			<path d="M125.36,19.88c-0.11,0.91-0.27,1.76-0.48,2.55c-0.02,0.06-0.03,0.11-0.05,0.17c-0.65,2.32-1.77,4.25-3.37,5.86
				c1.37-1.44,2.71-4.15,3.3-6.73c0.17-0.75,0.28-1.5,0.31-2.21c0.01-0.15,0.01-0.29,0.01-0.43c-0.02-0.95-0.33-1.95-0.97-3.11
				c-0.14-0.25-0.29-0.51-0.46-0.77c0.6,1.61,0.73,3.39,0.49,5.12c-0.52,3.77-2.75,7.5-5.66,9.21c2.28-1.53,4.88-5.56,5.38-9.52
				c0.35-2.65-0.22-5.4-2.55-7.46c-0.36-0.32-0.76-0.62-1.21-0.9c0.03,0.04,0.06,0.08,0.09,0.12c1.92,2.67,2.58,5.26,2.47,7.59
				c-0.2,4-2.75,7.57-5.75,9.42c1.7-1.23,3.09-2.9,4.19-5.06c0.68-1.45,1.05-2.92,1.09-4.41c0.01-0.53-0.01-1.05-0.07-1.58
				c-0.32-2.61-1.7-5.58-4.3-7.08c-0.56-0.32-1.17-0.58-1.85-0.75c0,0-1.35-0.4-2.78-0.48l1.16-2.04h0l8.81-0.8l1.4-6.21l-8.28,0.79
				c-3.6,3.44-3.27,3.18-6.75,6.77c0,0-0.73,0.83-1.59,1.83c-0.87,1.01-1.86,2.19-2.37,2.87c0,0,3.99-0.58,6.23-0.15
				c0.02,0,0.04,0.01,0.07,0.01c2.73,0.25,5.12,1.5,6.37,3.62c1.11,1.88,1.14,4.11,0.25,6.19c-0.02,0.04-0.03,0.07-0.05,0.11
				c-0.05,0.11-0.11,0.22-0.16,0.33c-0.47,0.88-1.09,1.75-1.84,2.57c-0.88,0.89-1.95,1.67-3.2,2.3c-5.16,2.58-11.1,1.34-13.14-2.71
				c-0.68-1.35-0.82-2.83-0.52-4.28c0.01-0.06,0.03-0.13,0.04-0.19c-0.9,1.63-1.76,3.37-2.56,5.23c-0.28,0.66-0.56,1.32-0.82,2.01
				c1.82,2.98,5.63,4.59,10.47,4.63c0.02-0.01,0.03-0.01,0.05-0.01c2.68-0.1,5.12-0.71,7.4-1.81c-1.77,1.01-4.47,1.92-7.34,2.12
				c-3.07,0.21-6.46-0.38-9.28-2.62c2.6,3.14,5.3,3.86,9.26,3.84c0.43-0.03,0.85-0.06,1.26-0.1c2.17-0.24,4.18-0.84,6.07-1.76
				c-1.4,0.81-3.38,1.55-5.55,1.93c-1.46,0.26-3.03,0.36-4.58,0.19c2.68,0.81,5.07,0.69,7.17,0.16c1.31-0.33,2.51-0.82,3.63-1.38
				c-0.87,0.51-1.96,0.99-3.18,1.37c-0.54,0.17-1.1,0.33-1.69,0.45c-0.08,0.02-0.17,0.03-0.26,0.05c2.17,0.16,4.4-0.35,6.38-1.21
				c0.93-0.4,1.82-0.88,2.62-1.41c2.34-1.52,4.48-3.62,5.7-6.13C125.2,24.23,125.63,22.2,125.36,19.88z"/>
		</g>
		<path d="M96.94,24.1c1.47-3.26,3.53-6.61,6.1-9.98c3.22-4.21,7.27-8.44,12.03-12.58l0.62-0.54l-5.35,0.55l-0.05,0.03
			c-0.05,0.03-4.95,2.78-10.54,7.93c-3.29,3.03-6.17,6.28-8.57,9.67c-3,4.24-5.25,8.7-6.69,13.27l-0.1,0.32l9.82,0.51l0.28,0.01
			l-0.01-0.28c0-0.01-0.01-0.85,0.28-2.35C95.03,29.27,95.63,27,96.94,24.1z M93.96,32.76l-8.88-0.46c1.42-4.4,3.62-8.71,6.52-12.81
			c2.38-3.36,5.24-6.58,8.5-9.59c5.24-4.83,9.81-7.5,10.4-7.84l3.62-0.37c-4.53,4-8.4,8.08-11.51,12.14
			c-2.6,3.4-4.67,6.79-6.16,10.09C94.31,28.67,94,31.77,93.96,32.76z"/>
		<path d="M96.65,9.23l0.06-0.05c0.2-0.17,5.09-4.26,11.43-6.87l1.65-0.68L89.86,3.68l-2.8,6.42l9.51-0.86L96.65,9.23z M87.88,9.51
			l2.33-5.34l16.21-1.67c-5.36,2.48-9.41,5.76-9.98,6.23L87.88,9.51z"/>
		<path d="M110.42,1.82c0,0-19.42,10.81-25.68,30.72l9.48,0.49c0,0-0.29-13.46,20.69-31.68L110.42,1.82z"/>
		<path d="M108.04,2.07L108.04,2.07L90.03,3.92L87.47,9.8l9.08-0.82C96.55,8.98,101.58,4.73,108.04,2.07z"/>
		<path d="M102.75,18.73h2.41l-0.02,3.35h-1.4l0-0.49h-1.13l-0.29,0.49h-1.59L102.75,18.73z M103.79,20.76l0.01-1.25l-0.76,1.25
			H103.79z M106.09,18.73h1.6l0.24,1.45c0.01,0.06,0.04,0.25,0.08,0.57c0.05-0.24,0.1-0.44,0.14-0.6l0.38-1.42h1.4l-0.9,3.35h-1.58
			l-0.29-1.29c-0.01-0.06-0.05-0.24-0.11-0.55c-0.04,0.24-0.09,0.43-0.13,0.56l-0.35,1.27h-1.38L106.09,18.73z M109.69,20.58
			c0.11-0.56,0.28-0.97,0.43-1.19c0.24-0.35,0.5-0.56,0.85-0.65c0.32-0.09,0.67-0.12,1.08-0.12c0.59,0,1.04,0.06,1.39,0.27
			c0.26,0.15,0.38,0.44,0.38,0.88c0,0.26-0.04,0.53-0.12,0.82c-0.12,0.46-0.31,0.82-0.56,1.1c-0.34,0.38-0.89,0.49-1.74,0.49
			c-1.24,0-1.76-0.28-1.76-1.1C109.63,20.93,109.65,20.76,109.69,20.58z M111.34,20.04c-0.15,0.23-0.26,0.64-0.26,0.89
			c0,0.19,0.16,0.3,0.47,0.3c0.19,0,0.34-0.06,0.43-0.18c0.1-0.11,0.15-0.24,0.2-0.41c0.07-0.21,0.1-0.38,0.1-0.51
			c0-0.23-0.15-0.34-0.47-0.34C111.61,19.8,111.45,19.88,111.34,20.04z M115.01,21.26c0.48,0,0.69-0.04,0.69-0.21
			c0-0.11-0.06-0.15-0.21-0.15c-0.23,0-0.37,0-0.41,0c-0.79,0-1.15-0.17-1.15-0.76c0-0.43,0.18-0.88,0.45-1.14
			c0.29-0.29,0.81-0.37,1.59-0.37c0.55,0,1.17,0.05,1.84,0.14l-0.28,1.07c-0.43-0.09-0.79-0.13-1.1-0.13
			c-0.62,0-0.92,0.04-0.92,0.23c0,0.14,0.11,0.14,0.35,0.14h0.54c0.62,0,0.91,0.19,0.91,0.67c0,0.45-0.15,0.83-0.39,1.05
			c-0.29,0.28-0.77,0.37-1.45,0.37c-0.65,0-1.33-0.06-2.03-0.18l0.23-0.87C114.19,21.22,114.63,21.26,115.01,21.26z"/>
	</g>
</g>
</svg>
